<?xml version="1.0" encoding="UTF-8"?>
<svg id="Capa_2" data-name="Capa 2" xmlns="http://www.w3.org/2000/svg" viewBox="0 0 2088.35 680">
  <defs>
    <style>
      .cls-1 {
        fill: #00d4ff;
      }

      .cls-2 {
        fill: #fff;
      }

      .cls-3 {
        fill: #b9c1d0;
      }

      .cls-4 {
        fill: #6d5dfb;
      }
    </style>
  </defs>
  <g id="Capa_1-2" data-name="Capa 1">
    <g>
      <path class="cls-2" d="M907.59,101.68h9.85l65.23,123.81,65.23-123.81h9.85l25.85,172.3h-29.05l-15.26-98.46-51.69,98.46h-9.85l-51.94-98.46-15.01,98.46h-29.05l25.85-172.3Z"/>
      <path class="cls-2" d="M1164.07,153.12h23.63l-23.63-51.44h31.01l78.77,172.3h-30.52l-11.08-24.12h-81.72l-11.08,24.12h-30.77l55.38-120.86Zm55.38,69.17l-28.06-61.04-28.06,61.04h56.12Z"/>
      <path class="cls-2" d="M1283.7,101.68l39.88,73.35,39.88-73.35h31.75l-56.86,103.87v68.43h-29.54v-72.86h.49l12.55-22.89-28.55-.98-41.35-75.57h31.75Z"/>
      <path class="cls-2" d="M1493.17,97.74c10.99,0,21.82,1.89,32.49,5.66,10.67,3.78,20.14,9.4,28.43,16.86,8.28,7.47,14.97,16.86,20.06,28.18,5.08,11.32,7.63,24.45,7.63,39.38s-2.55,28.27-7.63,39.51c-5.09,11.24-11.78,20.6-20.06,28.06-8.29,7.47-17.76,13.09-28.43,16.86-10.67,3.77-21.5,5.66-32.49,5.66s-22.07-1.89-32.74-5.66c-10.67-3.77-20.15-9.39-28.43-16.86-8.29-7.46-14.98-16.82-20.06-28.06-5.09-11.24-7.63-24.41-7.63-39.51,0-12.8,1.88-24.37,5.66-34.71h32.98c-3.12,4.6-5.54,9.77-7.26,15.51-1.72,5.75-2.58,12.15-2.58,19.2,0,10.18,1.72,19,5.17,26.46,3.45,7.47,8,13.75,13.66,18.83,5.66,5.09,12.06,8.86,19.2,11.32,7.14,2.46,14.48,3.69,22.03,3.69s14.68-1.23,21.91-3.69c7.22-2.46,13.62-6.23,19.2-11.32,5.58-5.08,10.09-11.36,13.54-18.83,3.45-7.47,5.17-16.28,5.17-26.46s-1.72-18.79-5.17-26.34c-3.45-7.55-7.96-13.86-13.54-18.95-5.58-5.08-11.98-8.86-19.2-11.32-7.22-2.46-14.52-3.69-21.91-3.69-9.19,0-18.05,1.85-26.58,5.54-8.53,3.69-15.67,9.23-21.41,16.61l-20.43-21.66c8.53-10.17,18.83-17.76,30.89-22.77,12.06-5,24.57-7.51,37.54-7.51Z"/>
      <path class="cls-2" d="M1669.65,101.68c11.32,0,21,1.97,29.05,5.91,8.04,3.94,14.4,9.07,19.08,15.38,4.68,6.32,7.75,13.29,9.23,20.92,1.48,7.63,1.27,15.1-.62,22.4-1.89,7.3-5.42,14.07-10.58,20.31-5.17,6.24-12.02,11-20.55,14.28l49.97,73.1h-35.2l-46.52-68.67h-18.71v68.67h-29.54v-121.06l29.05-23.67h-29.05v-27.57h54.4Zm-24.86,27.57v48.49h24.86c6.23,0,11.45-1.2,15.63-3.6,4.18-2.4,7.3-5.39,9.35-8.95,2.05-3.56,3.08-7.46,3.08-11.69s-1.07-8.12-3.2-11.69c-2.13-3.56-5.25-6.55-9.35-8.95-4.1-2.4-9.27-3.61-15.51-3.61h-24.86Z"/>
      <path class="cls-2" d="M1897.83,257c-7.16,5.75-15.89,10.63-26.17,14.65-10.28,4.02-21.09,6.03-32.41,6.03-14.77,0-27.73-2.58-38.89-7.75-11.16-5.17-20.43-11.94-27.81-20.31-7.39-8.37-12.92-17.93-16.62-28.68-3.69-10.75-5.54-21.78-5.54-33.11,0-5.91,.49-11.77,1.48-17.6,.98-5.82,2.54-11.53,4.68-17.11h34.46c-3.78,5.91-6.44,12.35-8,19.32-1.56,6.98-2.05,13.99-1.48,21.05,.57,7.06,2.22,13.91,4.92,20.55,2.71,6.65,6.48,12.51,11.32,17.6,4.84,5.09,10.75,9.15,17.72,12.18,6.97,3.04,14.97,4.55,24,4.55,6.89,0,12.63-.78,17.23-2.34,4.59-1.56,8.45-3.32,11.57-5.29v-33.23h-40.37v-27.57h69.9v77.04Zm-127.01-128.98c7.38-9.02,16.78-16.28,28.18-21.78,11.4-5.5,24.82-8.25,40.24-8.25,9.19,0,18.21,1.52,27.08,4.55,8.86,3.04,16.98,7.35,24.37,12.92l-17.23,24.12c-3.61-3.28-8.33-6.15-14.15-8.62-5.83-2.46-12.43-3.69-19.81-3.69-11,0-20.43,2.18-28.31,6.52-7.88,4.35-14.2,10.05-18.95,17.11l-21.41-22.89Z"/>
      <path class="cls-1" d="M1923.18,273.98l80.24-174.76h4.92l80,174.76h-30.52l-11.08-24.12h-81.72l-11.08,24.12h-30.77Zm110.76-51.69l-28.06-61.04-28.31,61.04h56.37Z"/>
      <path class="cls-1" d="M913.75,397.05v172.3h-29.54v-120.86l29.54-23.88h-29.54v-27.57h29.54Z"/>
      <path class="cls-3" d="M969.13,528.49c5.25,7.22,11.98,12.18,20.18,14.89,8.2,2.71,16.57,4.06,25.11,4.06,3.28,0,6.81-.33,10.58-.98,3.77-.65,7.3-1.8,10.58-3.45,3.28-1.64,5.99-3.82,8.12-6.52,2.13-2.71,3.2-6.11,3.2-10.22s-1.35-7.71-4.06-10.83c-2.71-3.12-6.32-5.99-10.83-8.62-4.52-2.62-9.64-5.08-15.38-7.38-5.75-2.3-11.61-4.76-17.6-7.38-5.99-2.62-11.86-5.45-17.6-8.49-5.75-3.03-10.87-6.56-15.38-10.58-4.51-4.02-8.12-8.7-10.83-14.03-2.71-5.33-4.06-11.53-4.06-18.58,0-8.37,1.64-15.71,4.92-22.03,3.28-6.32,7.63-11.57,13.05-15.75,5.42-4.18,11.69-7.34,18.83-9.48,7.14-2.13,14.56-3.2,22.28-3.2,11.32,0,22.23,2.26,32.74,6.77,10.5,4.52,19.77,10.71,27.81,18.58l-19.44,21.66c-5.75-5.74-12.18-10.17-19.32-13.29-7.14-3.12-14.73-4.68-22.77-4.68-3.78,0-7.38,.37-10.83,1.11-3.45,.74-6.52,1.97-9.23,3.69-2.71,1.72-4.88,4.02-6.52,6.89-1.64,2.87-2.46,6.44-2.46,10.71,0,4.92,2.38,9.07,7.14,12.43,4.76,3.37,10.67,6.57,17.72,9.6,7.05,3.04,14.73,6.2,23.01,9.48,8.28,3.28,15.96,7.26,23.01,11.94,7.05,4.68,12.96,10.42,17.72,17.23,4.76,6.81,7.14,15.22,7.14,25.23,0,8.37-1.89,15.63-5.66,21.78-3.78,6.15-8.61,11.28-14.52,15.38-5.91,4.1-12.6,7.14-20.06,9.11-7.47,1.97-14.89,2.95-22.28,2.95-6.4,0-12.76-.58-19.08-1.72-6.32-1.15-12.39-2.95-18.21-5.41-5.83-2.46-11.28-5.58-16.37-9.35-5.09-3.77-9.6-8.28-13.54-13.54l22.89-17.97Z"/>
      <path class="cls-3" d="M1093.43,424.62v-27.57h141.78v27.57h-141.78Zm85.41,144.73h-29.54v-120.86l29.54-23.88v144.73Z"/>
      <path class="cls-3" d="M1289.85,397.05v106.83c0,6.73,1.15,12.6,3.45,17.6,2.3,5.01,5.33,9.19,9.11,12.55,3.77,3.37,8.08,5.87,12.92,7.51,4.84,1.64,9.72,2.46,14.65,2.46s10.01-.82,14.77-2.46c4.76-1.64,9.02-4.14,12.8-7.51,3.77-3.36,6.81-7.55,9.11-12.55,2.3-5,3.45-10.87,3.45-17.6v-106.83h29.54v106.83c0,11.82-2.01,22.19-6.03,31.14-4.02,8.95-9.27,16.41-15.75,22.4-6.49,5.99-13.91,10.46-22.28,13.41-8.37,2.95-16.9,4.43-25.6,4.43s-17.23-1.48-25.6-4.43c-8.37-2.95-15.8-7.42-22.28-13.41-6.48-5.99-11.73-13.45-15.75-22.4-4.02-8.94-6.03-19.32-6.03-31.14v-55.38l29.54-23.88h-29.54v-27.57h29.54Z"/>
      <path class="cls-3" d="M1464.12,424.62h-29.54v-27.57h50.95c14.77,.17,27.65,2.71,38.64,7.63,10.99,4.92,20.14,11.45,27.45,19.57,7.3,8.12,12.8,17.31,16.49,27.57,3.69,10.26,5.54,20.72,5.54,31.38s-1.85,21.13-5.54,31.38c-3.69,10.26-9.19,19.45-16.49,27.57-7.3,8.12-16.45,14.65-27.45,19.57-11,4.92-23.88,7.47-38.64,7.63h-50.95v-120.86l29.54-23.88Zm0,0v117.16h20.18c12.96,0,23.75-2.88,32.37-8.63,8.61-5.75,15.1-12.99,19.44-21.71,4.35-8.72,6.52-18.13,6.52-28.25s-2.13-19.53-6.4-28.24c-4.27-8.72-10.75-15.95-19.45-21.71-8.7-5.75-19.53-8.63-32.49-8.63h-20.18Z"/>
      <path class="cls-3" d="M1636.66,397.05v172.3h-29.54v-120.86l29.54-23.88h-29.54v-27.57h29.54Z"/>
      <path class="cls-3" d="M1759,393.11c10.99,0,21.82,1.89,32.49,5.66,10.67,3.78,20.14,9.4,28.43,16.86,8.28,7.47,14.97,16.86,20.06,28.18,5.08,11.32,7.63,24.45,7.63,39.38s-2.55,28.27-7.63,39.51c-5.09,11.24-11.78,20.6-20.06,28.06-8.29,7.47-17.76,13.09-28.43,16.86-10.67,3.77-21.5,5.66-32.49,5.66s-22.07-1.89-32.74-5.66c-10.67-3.77-20.15-9.39-28.43-16.86-8.29-7.46-14.98-16.82-20.06-28.06-5.09-11.24-7.63-24.41-7.63-39.51,0-12.8,1.88-24.37,5.66-34.71h32.98c-3.12,4.6-5.54,9.77-7.26,15.51-1.72,5.75-2.58,12.15-2.58,19.2,0,10.18,1.72,19,5.17,26.46,3.45,7.47,8,13.75,13.66,18.83,5.66,5.09,12.06,8.86,19.2,11.32s14.48,3.69,22.03,3.69,14.68-1.23,21.91-3.69c7.22-2.46,13.62-6.23,19.2-11.32,5.58-5.08,10.09-11.36,13.54-18.83,3.45-7.47,5.17-16.28,5.17-26.46s-1.72-18.79-5.17-26.34c-3.45-7.55-7.96-13.86-13.54-18.95-5.58-5.08-11.98-8.86-19.2-11.32-7.22-2.46-14.52-3.69-21.91-3.69-9.19,0-18.05,1.85-26.58,5.54-8.53,3.69-15.67,9.23-21.41,16.61l-20.43-21.66c8.53-10.17,18.83-17.76,30.89-22.77,12.06-5,24.57-7.51,37.54-7.51Z"/>
      <g>
        <path class="cls-4" d="M0,91.36l32.84-5.33L317.44,463.62,467.91,15.37l32.84-5.33,179.52,560.63-96.87,15.73-104.22-320.1-119.06,356.36-32.84,5.33L100.75,327.77l3.25,336.5-96.87,15.73L0,91.36Z"/>
        <path class="cls-1" d="M502.57,0l184.89,582.79-99.91,28.9-106.63-336.1,51.23-182.35-99.91,28.9-29.58-93.24L502.57,0Z"/>
      </g>
    </g>
  </g>
</svg>