<?xml version="1.0" encoding="UTF-8"?>
<svg id="Capa_2" data-name="Capa 2" xmlns="http://www.w3.org/2000/svg" xmlns:xlink="http://www.w3.org/1999/xlink" viewBox="0 0 1052.38 429">
  <defs>
    <style>
      .cls-1, .cls-2 {
        fill: #00d4ff;
      }

      .cls-3 {
        fill: #fff;
      }

      .cls-4 {
        fill: url(#Degradado_sin_nombre_44);
      }

      .cls-5 {
        filter: url(#outer-glow-1);
      }

      .cls-6 {
        fill: #b9c1d0;
      }

      .cls-2 {
        filter: url(#outer-glow-2);
      }
    </style>
    <filter id="outer-glow-1" filterUnits="userSpaceOnUse">
      <feOffset dx="0" dy="0"/>
      <feGaussianBlur result="blur" stdDeviation="20"/>
      <feFlood flood-color="#6d5dfb" flood-opacity=".3"/>
      <feComposite in2="blur" operator="in"/>
      <feComposite in="SourceGraphic"/>
    </filter>
    <linearGradient id="Degradado_sin_nombre_44" data-name="Degradado sin nombre 44" x1="-30.6" y1="343.77" x2="302.15" y2="151.65" gradientUnits="userSpaceOnUse">
      <stop offset="0" stop-color="#6d5dfb"/>
      <stop offset=".52" stop-color="#8a63ff"/>
      <stop offset="1" stop-color="#00d4ff"/>
    </linearGradient>
    <filter id="outer-glow-2" filterUnits="userSpaceOnUse">
      <feOffset dx="0" dy="0"/>
      <feGaussianBlur result="blur-2" stdDeviation="20"/>
      <feFlood flood-color="#00d4ff" flood-opacity=".25"/>
      <feComposite in2="blur-2" operator="in"/>
      <feComposite in="SourceGraphic"/>
    </filter>
  </defs>
  <g id="Capa_1-2" data-name="Capa 1">
    <g>
      <path class="cls-3" d="M457.36,111.57h4.96l32.87,62.39,32.87-62.39h4.96l13.02,86.83h-14.64l-7.69-49.62-26.05,49.62h-4.96l-26.17-49.62-7.57,49.62h-14.64l13.02-86.83Z"/>
      <path class="cls-3" d="M586.61,137.49h11.91l-11.91-25.92h15.63l39.69,86.83h-15.38l-5.58-12.16h-41.18l-5.58,12.16h-15.5l27.91-60.9Zm27.91,34.86l-14.14-30.76-14.14,30.76h28.28Z"/>
      <path class="cls-3" d="M646.9,111.57l20.09,36.96,20.09-36.96h16l-28.65,52.34v34.48h-14.89v-36.72h.25l6.33-11.54-14.39-.5-20.84-38.08h16Z"/>
      <path class="cls-3" d="M752.45,109.58c5.54,0,11,.95,16.37,2.85,5.37,1.9,10.15,4.73,14.33,8.5,4.17,3.76,7.55,8.5,10.11,14.2,2.56,5.71,3.85,12.32,3.85,19.85s-1.28,14.25-3.85,19.91c-2.56,5.67-5.93,10.38-10.11,14.14-4.18,3.76-8.95,6.6-14.33,8.5-5.38,1.9-10.83,2.85-16.37,2.85s-11.12-.95-16.5-2.85c-5.38-1.9-10.15-4.73-14.33-8.5-4.18-3.76-7.55-8.48-10.11-14.14-2.56-5.66-3.85-12.3-3.85-19.91,0-6.45,.95-12.28,2.85-17.49h16.62c-1.57,2.32-2.79,4.92-3.66,7.81-.87,2.9-1.3,6.12-1.3,9.68,0,5.13,.87,9.57,2.6,13.33,1.74,3.76,4.03,6.93,6.88,9.49,2.85,2.56,6.08,4.47,9.67,5.71s7.3,1.86,11.1,1.86,7.4-.62,11.04-1.86c3.64-1.24,6.86-3.14,9.68-5.71,2.81-2.56,5.09-5.73,6.82-9.49,1.74-3.76,2.6-8.21,2.6-13.33s-.87-9.47-2.6-13.27c-1.74-3.8-4.01-6.99-6.82-9.55-2.81-2.56-6.04-4.47-9.68-5.71-3.64-1.24-7.32-1.86-11.04-1.86-4.63,0-9.1,.93-13.4,2.79-4.3,1.86-7.9,4.65-10.79,8.37l-10.3-10.92c4.3-5.13,9.49-8.95,15.57-11.47,6.08-2.52,12.38-3.78,18.92-3.78Z"/>
      <path class="cls-3" d="M841.39,111.57c5.71,0,10.58,.99,14.64,2.98,4.05,1.98,7.26,4.57,9.61,7.75,2.36,3.18,3.91,6.7,4.65,10.54,.74,3.85,.64,7.61-.31,11.29-.95,3.68-2.73,7.09-5.33,10.23-2.6,3.14-6.06,5.54-10.36,7.19l25.18,36.84h-17.74l-23.44-34.61h-9.43v34.61h-14.89v-61.01l14.64-11.93h-14.64v-13.89h27.41Zm-12.53,13.89v24.44h12.53c3.14,0,5.77-.6,7.88-1.82s3.68-2.72,4.71-4.51c1.03-1.79,1.55-3.76,1.55-5.89s-.54-4.09-1.61-5.89c-1.08-1.79-2.65-3.3-4.71-4.51-2.07-1.21-4.67-1.82-7.81-1.82h-12.53Z"/>
      <path class="cls-3" d="M956.38,189.84c-3.61,2.9-8.01,5.36-13.19,7.38-5.18,2.03-10.63,3.04-16.33,3.04-7.44,0-13.98-1.3-19.6-3.91-5.62-2.6-10.3-6.02-14.02-10.23-3.72-4.22-6.51-9.03-8.37-14.45-1.86-5.42-2.79-10.98-2.79-16.68,0-2.98,.25-5.93,.74-8.87,.5-2.93,1.28-5.81,2.36-8.62h17.37c-1.9,2.98-3.25,6.22-4.03,9.74-.79,3.52-1.03,7.05-.74,10.61,.29,3.56,1.12,7.01,2.48,10.36,1.36,3.35,3.27,6.31,5.71,8.87,2.44,2.56,5.42,4.61,8.93,6.14,3.51,1.53,7.54,2.29,12.09,2.29,3.47,0,6.37-.39,8.68-1.18,2.31-.78,4.26-1.67,5.83-2.67v-16.75h-20.34v-13.89h35.23v38.82Zm-64-65c3.72-4.55,8.45-8.21,14.2-10.98,5.75-2.77,12.51-4.16,20.28-4.16,4.63,0,9.18,.77,13.64,2.29,4.47,1.53,8.56,3.7,12.28,6.51l-8.68,12.16c-1.82-1.65-4.2-3.1-7.13-4.34-2.94-1.24-6.26-1.86-9.99-1.86-5.54,0-10.3,1.1-14.26,3.29-3.97,2.19-7.15,5.07-9.55,8.62l-10.79-11.54Z"/>
      <path class="cls-1" d="M969.15,198.4l40.44-88.07h2.48l40.31,88.07h-15.38l-5.58-12.16h-41.18l-5.58,12.16h-15.5Zm55.82-26.05l-14.14-30.76-14.26,30.76h28.4Z"/>
      <path class="cls-1" d="M460.47,260.42v86.83h-14.89v-60.9l14.89-12.03h-14.89v-13.89h14.89Z"/>
      <path class="cls-6" d="M488.37,326.65c2.65,3.64,6.04,6.14,10.17,7.5,4.13,1.36,8.35,2.05,12.65,2.05,1.65,0,3.43-.16,5.33-.5,1.9-.33,3.68-.91,5.33-1.74,1.65-.83,3.02-1.92,4.09-3.29,1.07-1.36,1.61-3.08,1.61-5.15s-.68-3.89-2.05-5.46c-1.36-1.57-3.18-3.02-5.46-4.34-2.28-1.32-4.86-2.56-7.75-3.72-2.9-1.16-5.85-2.4-8.87-3.72-3.02-1.32-5.98-2.75-8.87-4.28-2.9-1.53-5.48-3.31-7.75-5.33-2.28-2.03-4.09-4.38-5.46-7.07-1.36-2.69-2.05-5.81-2.05-9.37,0-4.22,.83-7.92,2.48-11.1,1.65-3.18,3.85-5.83,6.57-7.94,2.73-2.11,5.89-3.7,9.49-4.78,3.6-1.07,7.34-1.61,11.23-1.61,5.71,0,11.2,1.14,16.5,3.41,5.29,2.28,9.96,5.4,14.02,9.37l-9.8,10.92c-2.9-2.89-6.14-5.13-9.74-6.7-3.6-1.57-7.42-2.36-11.47-2.36-1.9,0-3.72,.19-5.46,.56-1.74,.37-3.29,.99-4.65,1.86-1.36,.87-2.46,2.03-3.29,3.47-.83,1.45-1.24,3.25-1.24,5.4,0,2.48,1.2,4.57,3.6,6.26,2.4,1.7,5.37,3.31,8.93,4.84,3.55,1.53,7.42,3.12,11.6,4.78,4.17,1.66,8.04,3.66,11.6,6.02,3.55,2.36,6.53,5.25,8.93,8.68,2.4,3.43,3.6,7.67,3.6,12.71,0,4.22-.95,7.88-2.85,10.98-1.9,3.1-4.34,5.69-7.32,7.75-2.98,2.07-6.35,3.6-10.11,4.59-3.76,.99-7.5,1.49-11.23,1.49-3.22,0-6.43-.29-9.61-.87-3.18-.58-6.24-1.49-9.18-2.73-2.94-1.24-5.69-2.81-8.25-4.71-2.56-1.9-4.84-4.17-6.82-6.82l11.54-9.05Z"/>
      <path class="cls-6" d="M551.01,274.31v-13.89h71.45v13.89h-71.45Zm43.04,72.94h-14.89v-60.9l14.89-12.03v72.94Z"/>
      <path class="cls-6" d="M650,260.42v53.83c0,3.39,.58,6.35,1.74,8.87,1.16,2.52,2.69,4.63,4.59,6.33,1.9,1.7,4.07,2.96,6.51,3.78,2.44,.83,4.9,1.24,7.38,1.24s5.04-.41,7.44-1.24c2.4-.83,4.55-2.09,6.45-3.78,1.9-1.69,3.43-3.8,4.59-6.33,1.16-2.52,1.74-5.48,1.74-8.87v-53.83h14.88v53.83c0,5.95-1.01,11.18-3.04,15.69-2.03,4.51-4.67,8.27-7.94,11.29-3.27,3.02-7.01,5.27-11.23,6.76-4.22,1.49-8.52,2.23-12.9,2.23s-8.68-.74-12.9-2.23-7.96-3.74-11.23-6.76c-3.27-3.02-5.91-6.78-7.94-11.29-2.03-4.51-3.04-9.74-3.04-15.69v-27.91l14.88-12.03h-14.88v-13.89h14.88Z"/>
      <path class="cls-6" d="M737.82,274.31h-14.89v-13.89h25.68c7.44,.08,13.93,1.36,19.47,3.85,5.54,2.48,10.15,5.77,13.83,9.86,3.68,4.09,6.45,8.73,8.31,13.89,1.86,5.17,2.79,10.44,2.79,15.82s-.93,10.65-2.79,15.81c-1.86,5.17-4.63,9.8-8.31,13.89-3.68,4.09-8.29,7.38-13.83,9.86-5.54,2.48-12.03,3.76-19.47,3.85h-25.68v-60.9l14.89-12.03Zm0,0v59.04h10.17c6.53,0,11.97-1.45,16.31-4.35,4.34-2.9,7.61-6.55,9.8-10.94,2.19-4.39,3.29-9.14,3.29-14.23s-1.08-9.84-3.22-14.23c-2.15-4.39-5.42-8.04-9.8-10.94-4.38-2.9-9.84-4.35-16.37-4.35h-10.17Z"/>
      <path class="cls-6" d="M824.77,260.42v86.83h-14.89v-60.9l14.89-12.03h-14.89v-13.89h14.89Z"/>
      <path class="cls-6" d="M886.41,258.43c5.54,0,11,.95,16.37,2.85,5.37,1.9,10.15,4.73,14.33,8.5,4.17,3.76,7.55,8.5,10.11,14.2,2.56,5.71,3.85,12.32,3.85,19.85s-1.28,14.25-3.85,19.91c-2.56,5.67-5.93,10.38-10.11,14.14-4.18,3.76-8.95,6.6-14.33,8.5-5.38,1.9-10.83,2.85-16.37,2.85s-11.12-.95-16.5-2.85c-5.38-1.9-10.15-4.73-14.33-8.5-4.18-3.76-7.55-8.48-10.11-14.14-2.56-5.66-3.85-12.3-3.85-19.91,0-6.45,.95-12.28,2.85-17.49h16.62c-1.57,2.32-2.79,4.92-3.66,7.81-.87,2.9-1.3,6.12-1.3,9.68,0,5.13,.87,9.57,2.6,13.33,1.74,3.76,4.03,6.93,6.88,9.49,2.85,2.56,6.08,4.47,9.67,5.71,3.6,1.24,7.3,1.86,11.1,1.86s7.4-.62,11.04-1.86c3.64-1.24,6.86-3.14,9.68-5.71,2.81-2.56,5.09-5.73,6.82-9.49,1.74-3.76,2.6-8.21,2.6-13.33s-.87-9.47-2.6-13.27c-1.74-3.8-4.01-6.99-6.82-9.55-2.81-2.56-6.04-4.47-9.68-5.71-3.64-1.24-7.32-1.86-11.04-1.86-4.63,0-9.1,.93-13.4,2.79-4.3,1.86-7.9,4.65-10.79,8.37l-10.3-10.92c4.3-5.13,9.49-8.95,15.57-11.47,6.08-2.52,12.38-3.78,18.92-3.78Z"/>
      <g class="cls-5">
        <path class="cls-4" d="M0,106.37l16.55-2.69,143.42,190.28L235.8,68.08l16.55-2.69,90.47,282.52-48.81,7.93-52.52-161.31-60,179.58-16.55,2.69L50.77,225.5l1.64,169.57-48.82,7.93L0,106.37Z"/>
      </g>
      <path class="cls-2" d="M253.26,60.33l93.17,293.69-50.35,14.56-53.73-169.37,25.82-91.89-50.35,14.56-14.91-46.99,50.35-14.56Z"/>
    </g>
  </g>
</svg>