<?xml version="1.0" encoding="UTF-8"?>
<svg id="Capa_2" data-name="Capa 2" xmlns="http://www.w3.org/2000/svg" xmlns:xlink="http://www.w3.org/1999/xlink" viewBox="0 0 500.29 268">
  <defs>
    <style>
      .cls-1, .cls-2 {
        fill: #fff;
      }

      .cls-3 {
        filter: url(#outer-glow-1);
      }

      .cls-2 {
        filter: url(#outer-glow-2);
      }
    </style>
    <filter id="outer-glow-1" filterUnits="userSpaceOnUse">
      <feOffset dx="0" dy="0"/>
      <feGaussianBlur result="blur" stdDeviation="20"/>
      <feFlood flood-color="#6d5dfb" flood-opacity=".3"/>
      <feComposite in2="blur" operator="in"/>
      <feComposite in="SourceGraphic"/>
    </filter>
    <filter id="outer-glow-2" filterUnits="userSpaceOnUse">
      <feOffset dx="0" dy="0"/>
      <feGaussianBlur result="blur-2" stdDeviation="20"/>
      <feFlood flood-color="#00d4ff" flood-opacity=".25"/>
      <feComposite in2="blur-2" operator="in"/>
      <feComposite in="SourceGraphic"/>
    </filter>
  </defs>
  <g id="Capa_1-2" data-name="Capa 1">
    <g>
      <path class="cls-1" d="M217.42,85.29h2.36l15.63,29.66,15.63-29.66h2.36l6.19,41.28h-6.96l-3.66-23.59-12.38,23.59h-2.36l-12.44-23.59-3.6,23.59h-6.96l6.19-41.28Z"/>
      <path class="cls-1" d="M278.87,97.61h5.66l-5.66-12.32h7.43l18.87,41.28h-7.31l-2.65-5.78h-19.58l-2.65,5.78h-7.37l13.27-28.95Zm13.27,16.57l-6.72-14.62-6.72,14.62h13.44Z"/>
      <path class="cls-1" d="M307.53,85.29l9.55,17.57,9.55-17.57h7.61l-13.62,24.88v16.39h-7.08v-17.45h.12l3.01-5.48-6.84-.24-9.91-18.1h7.61Z"/>
      <path class="cls-1" d="M357.71,84.34c2.63,0,5.23,.45,7.78,1.36,2.55,.9,4.83,2.25,6.81,4.04,1.98,1.79,3.59,4.04,4.81,6.75,1.22,2.71,1.83,5.86,1.83,9.43s-.61,6.77-1.83,9.46c-1.22,2.69-2.82,4.93-4.81,6.72-1.99,1.79-4.26,3.14-6.81,4.04-2.56,.9-5.15,1.36-7.78,1.36s-5.29-.45-7.84-1.36c-2.56-.9-4.83-2.25-6.81-4.04-1.99-1.79-3.59-4.03-4.81-6.72-1.22-2.69-1.83-5.85-1.83-9.46,0-3.07,.45-5.84,1.36-8.31h7.9c-.75,1.1-1.33,2.34-1.74,3.71-.41,1.38-.62,2.91-.62,4.6,0,2.44,.41,4.55,1.24,6.34,.83,1.79,1.92,3.29,3.27,4.51,1.36,1.22,2.89,2.12,4.6,2.71,1.71,.59,3.47,.88,5.28,.88s3.52-.29,5.25-.88c1.73-.59,3.26-1.49,4.6-2.71,1.34-1.22,2.42-2.72,3.24-4.51,.83-1.79,1.24-3.9,1.24-6.34s-.41-4.5-1.24-6.31c-.83-1.81-1.91-3.32-3.24-4.54-1.34-1.22-2.87-2.12-4.6-2.71-1.73-.59-3.48-.88-5.25-.88-2.2,0-4.32,.44-6.37,1.33-2.04,.88-3.75,2.21-5.13,3.98l-4.89-5.19c2.04-2.44,4.51-4.25,7.4-5.45,2.89-1.2,5.89-1.8,8.99-1.8Z"/>
      <path class="cls-1" d="M399.99,85.29c2.71,0,5.03,.47,6.96,1.42,1.93,.94,3.45,2.17,4.57,3.69,1.12,1.51,1.86,3.18,2.21,5.01,.35,1.83,.3,3.62-.15,5.37-.45,1.75-1.3,3.37-2.54,4.86-1.24,1.49-2.88,2.63-4.92,3.42l11.97,17.51h-8.43l-11.14-16.45h-4.48v16.45h-7.08v-29l6.96-5.67h-6.96v-6.6h13.03Zm-5.96,6.6v11.62h5.96c1.49,0,2.74-.29,3.74-.86s1.75-1.29,2.24-2.14c.49-.85,.74-1.79,.74-2.8s-.26-1.95-.77-2.8c-.51-.85-1.26-1.57-2.24-2.14-.98-.58-2.22-.86-3.71-.86h-5.96Z"/>
      <path class="cls-1" d="M454.65,122.49c-1.72,1.38-3.81,2.55-6.27,3.51-2.46,.96-5.05,1.44-7.76,1.44-3.54,0-6.64-.62-9.32-1.86-2.67-1.24-4.89-2.86-6.66-4.86-1.77-2-3.1-4.29-3.98-6.87-.88-2.57-1.33-5.22-1.33-7.93,0-1.42,.12-2.82,.35-4.22,.24-1.39,.61-2.76,1.12-4.1h8.26c-.9,1.42-1.54,2.96-1.92,4.63-.37,1.67-.49,3.35-.35,5.04,.14,1.69,.53,3.33,1.18,4.92,.65,1.59,1.55,3,2.71,4.22,1.16,1.22,2.57,2.19,4.25,2.92,1.67,.73,3.59,1.09,5.75,1.09,1.65,0,3.03-.19,4.13-.56,1.1-.37,2.02-.8,2.77-1.27v-7.96h-9.67v-6.6h16.75v18.46Zm-30.43-30.9c1.77-2.16,4.02-3.9,6.75-5.22,2.73-1.32,5.95-1.98,9.64-1.98,2.2,0,4.36,.36,6.49,1.09,2.12,.73,4.07,1.76,5.84,3.1l-4.13,5.78c-.87-.79-2-1.47-3.39-2.06-1.4-.59-2.98-.88-4.75-.88-2.63,0-4.89,.52-6.78,1.56-1.89,1.04-3.4,2.41-4.54,4.1l-5.13-5.48Z"/>
      <path class="cls-1" d="M460.72,126.56l19.22-41.87h1.18l19.16,41.87h-7.31l-2.65-5.78h-19.58l-2.65,5.78h-7.37Zm26.53-12.38l-6.72-14.62-6.78,14.62h13.5Z"/>
      <path class="cls-1" d="M218.9,156.05v41.28h-7.08v-28.95l7.08-5.72h-7.08v-6.6h7.08Z"/>
      <path class="cls-1" d="M232.17,187.53c1.26,1.73,2.87,2.92,4.84,3.57,1.97,.65,3.97,.97,6.01,.97,.79,0,1.63-.08,2.54-.24,.9-.16,1.75-.43,2.54-.83,.79-.39,1.43-.91,1.95-1.56,.51-.65,.77-1.46,.77-2.45s-.32-1.85-.97-2.59c-.65-.75-1.51-1.43-2.59-2.06-1.08-.63-2.31-1.22-3.69-1.77-1.38-.55-2.78-1.14-4.22-1.77-1.44-.63-2.84-1.31-4.22-2.03-1.38-.73-2.6-1.57-3.69-2.54-1.08-.96-1.95-2.08-2.59-3.36-.65-1.28-.97-2.76-.97-4.45,0-2,.39-3.76,1.18-5.28,.79-1.51,1.83-2.77,3.13-3.77,1.3-1,2.8-1.76,4.51-2.27,1.71-.51,3.49-.77,5.34-.77,2.71,0,5.33,.54,7.84,1.62,2.52,1.08,4.74,2.57,6.66,4.45l-4.66,5.19c-1.38-1.38-2.92-2.44-4.63-3.18-1.71-.75-3.53-1.12-5.45-1.12-.9,0-1.77,.09-2.59,.27-.83,.18-1.56,.47-2.21,.88-.65,.41-1.17,.96-1.56,1.65-.39,.69-.59,1.54-.59,2.56,0,1.18,.57,2.17,1.71,2.98,1.14,.81,2.55,1.57,4.25,2.3,1.69,.73,3.53,1.48,5.51,2.27,1.98,.79,3.82,1.74,5.51,2.86,1.69,1.12,3.11,2.5,4.25,4.13,1.14,1.63,1.71,3.65,1.71,6.04,0,2-.45,3.74-1.36,5.22-.9,1.47-2.06,2.7-3.48,3.69-1.42,.98-3.02,1.71-4.81,2.18-1.79,.47-3.57,.71-5.34,.71-1.53,0-3.06-.14-4.57-.41-1.51-.28-2.97-.71-4.36-1.3-1.4-.59-2.7-1.34-3.92-2.24-1.22-.9-2.3-1.98-3.24-3.24l5.48-4.3Z"/>
      <path class="cls-1" d="M261.94,162.65v-6.6h33.96v6.6h-33.96Zm20.46,34.67h-7.08v-28.95l7.08-5.72v34.67Z"/>
      <path class="cls-1" d="M309,156.05v25.59c0,1.61,.27,3.02,.83,4.22,.55,1.2,1.28,2.2,2.18,3.01,.9,.81,1.94,1.41,3.1,1.8,1.16,.39,2.33,.59,3.51,.59s2.4-.2,3.54-.59c1.14-.39,2.16-.99,3.07-1.8,.9-.81,1.63-1.81,2.18-3.01,.55-1.2,.83-2.6,.83-4.22v-25.59h7.08v25.59c0,2.83-.48,5.32-1.44,7.46-.96,2.14-2.22,3.93-3.77,5.37-1.55,1.44-3.33,2.51-5.34,3.21-2.01,.71-4.05,1.06-6.13,1.06s-4.13-.35-6.13-1.06-3.78-1.78-5.34-3.21c-1.55-1.43-2.81-3.22-3.77-5.37-.96-2.14-1.44-4.63-1.44-7.46v-13.27l7.08-5.72h-7.08v-6.6h7.08Z"/>
      <path class="cls-1" d="M350.75,162.65h-7.08v-6.6h12.21c3.54,.04,6.62,.65,9.26,1.83,2.63,1.18,4.83,2.74,6.57,4.69,1.75,1.95,3.07,4.15,3.95,6.6,.88,2.46,1.33,4.96,1.33,7.52s-.44,5.06-1.33,7.52c-.88,2.46-2.2,4.66-3.95,6.6-1.75,1.95-3.94,3.51-6.57,4.69-2.63,1.18-5.72,1.79-9.26,1.83h-12.21v-28.95l7.08-5.72Zm0,0v28.07h4.84c3.11,0,5.69-.69,7.75-2.07,2.06-1.38,3.62-3.11,4.66-5.2,1.04-2.09,1.56-4.34,1.56-6.77s-.51-4.68-1.53-6.77c-1.02-2.09-2.58-3.82-4.66-5.2-2.08-1.38-4.68-2.07-7.78-2.07h-4.84Z"/>
      <path class="cls-1" d="M392.08,156.05v41.28h-7.08v-28.95l7.08-5.72h-7.08v-6.6h7.08Z"/>
      <path class="cls-1" d="M421.39,155.1c2.63,0,5.23,.45,7.78,1.36,2.55,.9,4.83,2.25,6.81,4.04,1.98,1.79,3.59,4.04,4.81,6.75,1.22,2.71,1.83,5.86,1.83,9.43s-.61,6.77-1.83,9.46c-1.22,2.69-2.82,4.93-4.81,6.72-1.99,1.79-4.26,3.14-6.81,4.04-2.56,.9-5.15,1.36-7.78,1.36s-5.29-.45-7.84-1.36c-2.56-.9-4.83-2.25-6.81-4.04-1.99-1.79-3.59-4.03-4.81-6.72-1.22-2.69-1.83-5.85-1.83-9.46,0-3.07,.45-5.84,1.36-8.31h7.9c-.75,1.1-1.33,2.34-1.74,3.71-.41,1.38-.62,2.91-.62,4.6,0,2.44,.41,4.55,1.24,6.34,.83,1.79,1.92,3.29,3.27,4.51,1.36,1.22,2.89,2.12,4.6,2.71s3.47,.88,5.28,.88,3.52-.29,5.25-.88c1.73-.59,3.26-1.49,4.6-2.71,1.34-1.22,2.42-2.72,3.24-4.51,.83-1.79,1.24-3.9,1.24-6.34s-.41-4.5-1.24-6.31c-.83-1.81-1.91-3.32-3.24-4.54-1.34-1.22-2.87-2.12-4.6-2.71-1.73-.59-3.48-.88-5.25-.88-2.2,0-4.32,.44-6.37,1.33-2.04,.88-3.75,2.21-5.13,3.98l-4.89-5.19c2.04-2.44,4.51-4.25,7.4-5.45,2.89-1.2,5.89-1.8,8.99-1.8Z"/>
      <g class="cls-3">
        <path class="cls-1" d="M0,82.81l7.87-1.28,68.18,90.46,36.05-107.38,7.87-1.28,43.01,134.31-23.21,3.77-24.97-76.68-28.52,85.37-7.87,1.28L24.14,139.45l.78,80.61-23.21,3.77L0,82.81Z"/>
      </g>
      <path class="cls-2" d="M120.4,60.93l44.29,139.62-23.94,6.92-25.54-80.52,12.27-43.68-23.94,6.92-7.09-22.34,23.94-6.92Z"/>
    </g>
  </g>
</svg>